<svg width="57" height="56" viewBox="0 0 57 56" fill="none" xmlns="http://www.w3.org/2000/svg">
<path d="M38.7056 30.5423C37.7291 30.5452 36.7555 30.439 35.8026 30.2256C36.358 31.4257 36.7827 32.6821 37.0694 33.973C37.5972 33.973 38.1426 33.973 38.7056 33.973C40.4997 33.9702 42.2818 33.6791 43.9836 33.1109L42.3474 29.9265C41.1674 30.2977 39.942 30.5049 38.7056 30.5423Z" fill="#669DF6"/>
<path d="M29.6098 27.1291L28.9764 26.4606C27.6028 25.1176 26.5434 23.4873 25.8742 21.6866C25.205 19.8859 24.9426 17.9594 25.1059 16.0453C25.2855 13.4815 26.2292 11.0303 27.8152 9.0079L27.6745 11.5238C27.6727 11.9642 27.8362 12.3893 28.1326 12.715C28.429 13.0408 28.8369 13.2435 29.2755 13.2831H29.4338C29.8743 13.2849 30.2993 13.1214 30.6251 12.825C30.9508 12.5286 31.1536 12.1207 31.1932 11.6821L31.7914 4.48639C31.8124 4.23156 31.7777 3.9752 31.6896 3.73516C31.6015 3.49513 31.4621 3.27718 31.2812 3.0965C31.0886 2.9405 30.8652 2.82694 30.6257 2.76327C30.3862 2.6996 30.1359 2.68726 29.8913 2.72704L22.6956 3.34281C22.2289 3.38247 21.7972 3.60587 21.4953 3.96386C21.1934 4.32184 21.0461 4.78509 21.0858 5.2517C21.1254 5.71831 21.3488 6.15005 21.7068 6.45195C22.0648 6.75384 22.528 6.90116 22.9946 6.8615L25.2642 6.66797C23.1271 9.34217 21.8675 12.6109 21.6575 16.0277C21.4757 18.3693 21.8013 20.7226 22.612 22.9269C23.4226 25.1312 24.6994 27.1347 26.355 28.8005L26.9004 29.4515C29.1486 31.7748 30.4421 34.8579 30.5246 38.0899C30.6184 39.5538 30.4637 41.0231 30.0672 42.4354L33.234 44.0364C33.9153 42.0533 34.1847 39.952 34.0257 37.8611C33.9177 33.8637 32.3464 30.045 29.6098 27.1291Z" fill="#669DF6"/>
<path d="M54.311 27.1995L52.1822 27.3579C54.1247 24.8437 55.3228 21.8349 55.6401 18.6736C55.9575 15.5123 55.3815 12.3254 53.9775 9.47527C52.5735 6.62513 50.3979 4.22615 47.6981 2.55112C44.9984 0.876086 41.8828 -0.00777143 38.7056 5.14826e-05C36.9109 -0.00304903 35.1279 0.288175 33.4276 0.86213L35.0286 4.02895C37.0371 3.46012 39.1502 3.36503 41.2017 3.75118C43.2532 4.13732 45.1871 4.99415 46.8514 6.25429C48.5157 7.51443 49.8649 9.14351 50.7929 11.0134C51.721 12.8833 52.2025 14.943 52.1998 17.0305C52.1992 20.0472 51.1759 22.9746 49.2968 25.3346L49.4728 22.6252C49.4878 22.3942 49.4572 22.1624 49.3826 21.9432C49.3081 21.724 49.1911 21.5217 49.0383 21.3477C48.8856 21.1737 48.7001 21.0315 48.4923 20.9292C48.2846 20.8269 48.0588 20.7665 47.8278 20.7515C47.5967 20.7365 47.365 20.7671 47.1458 20.8417C46.9266 20.9162 46.7242 21.0332 46.5502 21.186C46.3763 21.3387 46.2341 21.5242 46.1318 21.7319C46.0295 21.9396 45.9691 22.1655 45.9541 22.3965L45.4615 29.5746C45.4475 29.8292 45.489 30.0838 45.5832 30.3208C45.6774 30.5577 45.8219 30.7714 46.0069 30.9469C46.165 31.1074 46.3542 31.2338 46.563 31.3186C46.7717 31.4033 46.9956 31.4444 47.2208 31.4395H47.3967L54.5749 30.7006C54.8063 30.6786 55.0312 30.611 55.2364 30.5016C55.4415 30.3922 55.623 30.2432 55.7702 30.0632C55.9175 29.8833 56.0276 29.6759 56.0942 29.4531C56.1608 29.2304 56.1826 28.9966 56.1583 28.7653C56.1094 28.3174 55.8906 27.9053 55.5469 27.614C55.2032 27.3227 54.7608 27.1743 54.311 27.1995Z" fill="#669DF6"/>
<path d="M4.46875 31.6506H4.6095L11.8052 31.0348C12.0363 31.0152 12.2612 30.9502 12.4671 30.8437C12.673 30.7371 12.856 30.591 13.0055 30.4138C13.1549 30.2365 13.268 30.0316 13.3383 29.8106C13.4086 29.5896 13.4347 29.357 13.415 29.1259C13.3954 28.8949 13.3304 28.67 13.2239 28.4641C13.1173 28.2581 12.9712 28.0752 12.794 27.9257C12.6167 27.7762 12.4118 27.6631 12.1908 27.5928C11.9698 27.5226 11.7372 27.4965 11.5061 27.5161L9.06064 27.7273C11.3641 26.0279 14.1504 25.1094 17.0129 25.1058C17.9772 25.1116 18.9383 25.2178 19.8806 25.4225C19.328 24.223 18.9091 22.9663 18.6315 21.6751C18.1037 21.6751 17.5583 21.6751 17.0129 21.6751C13.2592 21.6695 9.60926 22.9068 6.63274 25.1938L6.84386 22.8891C6.8631 22.6579 6.83643 22.4252 6.76538 22.2043C6.69433 21.9835 6.58031 21.7789 6.42987 21.6023C6.27943 21.4257 6.09556 21.2806 5.88882 21.1753C5.68209 21.0701 5.45658 21.0067 5.22527 20.989C4.76114 20.95 4.30047 21.0966 3.94429 21.3967C3.5881 21.6968 3.36546 22.126 3.32518 22.59L2.70941 29.7681C2.68993 30.0107 2.72101 30.2547 2.80066 30.4847C2.88032 30.7146 3.00682 30.9256 3.17217 31.1042C3.33753 31.2828 3.53813 31.4251 3.76131 31.5222C3.98448 31.6192 4.22537 31.669 4.46875 31.6682V31.6506Z" fill="#669DF6"/>
<path d="M29.7153 45.356L22.5196 45.831C22.053 45.8613 21.6176 46.0758 21.3091 46.4271C21.0006 46.7785 20.8443 47.2381 20.8746 47.7047C20.9049 48.1713 21.1194 48.6067 21.4708 48.9152C21.8222 49.2237 22.2817 49.38 22.7483 49.3497L25.4577 49.1561C23.4652 50.7575 21.0607 51.7633 18.5215 52.0576C15.9822 52.3518 13.4114 51.9226 11.1055 50.8193C8.79958 49.7159 6.85235 47.9835 5.48826 45.8216C4.12416 43.6597 3.39871 41.1563 3.39553 38.6001C3.40821 37.4097 3.57979 36.2263 3.90574 35.0814L0.826892 33.4452C0.281855 35.1214 0.00284067 36.8727 0 38.6353C0.0206421 41.8215 0.932874 44.9383 2.63342 47.6328C4.33397 50.3273 6.75491 52.492 9.62216 53.8817C12.4894 55.2713 15.6885 55.8306 18.8571 55.496C22.0258 55.1615 25.0375 53.9465 27.5513 51.9887L27.3402 54.0647C27.3158 54.2946 27.337 54.5271 27.4025 54.7488C27.468 54.9705 27.5766 55.1771 27.722 55.3569C27.8674 55.5366 28.0468 55.6859 28.25 55.7963C28.4532 55.9066 28.6761 55.9758 28.906 56H29.0996C29.5372 56.0022 29.96 55.8412 30.2853 55.5484C30.6106 55.2556 30.8151 54.8521 30.8589 54.4166L31.5978 47.2736C31.624 47.0191 31.5942 46.7619 31.5108 46.52C31.4273 46.2782 31.2921 46.0574 31.1145 45.8732C30.937 45.6889 30.7214 45.5456 30.4828 45.4532C30.2441 45.3609 29.9882 45.3217 29.7329 45.3384L29.7153 45.356Z" fill="#669DF6"/>
</svg>
