<svg width="91" height="55" viewBox="0 0 91 55" fill="none" xmlns="http://www.w3.org/2000/svg">
<path d="M65.6564 27.3859L65.8864 27.0833L65.6564 26.7807L47.2643 2.58328H48.7146C50.3085 2.58328 51.809 3.32701 52.7726 4.59607L52.7728 4.59626L67.479 23.9442L67.8771 24.4679L68.2752 23.9442L82.9814 4.59626L82.9818 4.59569C83.9433 3.32705 85.4435 2.58328 87.0375 2.58328H88.4878L70.0957 26.7807L69.8657 27.0833L70.0957 27.3858L89.3753 52.7499H87.925C86.3311 52.7499 84.8306 52.0062 83.867 50.7371L83.8668 50.7369L68.2731 30.2224L67.875 29.6987L67.477 30.2224L51.8833 50.7369C51.8833 50.7369 51.8832 50.7369 51.8832 50.7369C50.9193 52.0044 49.4185 52.7499 47.825 52.7499H46.3749L65.6564 27.3859ZM4.33335 28.6666H3.83335L18.6417 49.4895L18.5297 49.9768C18.5297 49.9768 18.5297 49.9768 18.5297 49.9768C28.017 52.1568 36.6832 47.308 40.4001 39.6198C40.8798 38.6284 41.8767 37.9999 42.9729 37.9999H44.443C41.5505 47.1596 32.9543 53.7841 22.8142 53.6646C10.4336 53.5182 0.666687 42.8751 0.666687 29.4624V29.1666V24.9999V23.5083C0.666687 12.4268 8.45008 2.55761 19.3524 0.80192L19.3525 0.801915C33.3856 -1.4588 45.5 9.3136 45.5 22.9166V28.6666H4.33335ZM3.83335 24.9999V25.4999H4.33335H41.8334H42.3334V24.9999V22.9166C42.3334 10.8361 31.2053 1.35751 18.6494 4.16197L18.6493 4.16199C9.8011 6.13994 3.83335 14.3927 3.83335 24.3958V24.9999Z" fill="#F5F6F5" stroke="white"/>
</svg>
