<svg width="1077" height="220" viewBox="0 0 1077 220" fill="none" xmlns="http://www.w3.org/2000/svg">
<path d="M246.4 51.4H301.6C341.5 51.4 351.7 74.9 351.7 94C351.7 113.1 341.4 136.6 301.6 136.6H267.5V203.8H246.4V51.4ZM267.6 118.6H295.5C312.3 118.6 329 114.8 329 94.1C329 73.4 312.2 69.6 295.5 69.6H267.6V118.6Z" fill="white"/>
<path d="M379.4 50.7001C387.4 50.7001 393.9 57.0001 394 64.7001C394.1 72.5001 387.8 78.9001 379.8 79.1001C371.8 79.3001 365.2 73.2001 364.9 65.4001C364.8 61.5001 366.3 57.8001 369 55.0001C371.6 52.3001 375.4 50.7001 379.4 50.7001ZM369.6 101.8H389.2V203.9H369.6V101.8Z" fill="white"/>
<path d="M412 101.8H431.9V117.6H432.4C439.3 105.6 452.7 98.4001 466.8 99.3001C487.1 99.3001 504.6 111.2 504.6 138.3V204H485V143.8C485 124.6 473.7 117.5 461.1 117.5C444.6 117.5 432 127.8 432 151.5V204H412V101.8Z" fill="white"/>
<path d="M540.9 160C540.9 177.8 557.9 189.5 576.2 189.5C587.7 189.2 598.4 183.5 604.9 174.3L620 185.5C609 199.6 591.6 207.5 573.5 206.6C540.3 206.6 519.7 183.4 519.7 153C519.1 138.8 524.6 125 534.8 114.9C545 104.8 559 99.2001 573.6 99.4001C610.5 99.4001 624.6 126.9 624.6 153.2V160.1H540.9V160ZM603.7 144.5C603.2 127.5 593.5 115 573.5 115C556.4 114.9 542.1 127.8 541 144.5H603.7Z" fill="white"/>
<path d="M714.6 129C708.1 121.5 698.6 117.3 688.5 117.6C666.9 117.6 655.8 134.6 655.8 153.8C655.3 162.9 658.6 171.7 665 178.3C671.4 184.9 680.3 188.6 689.6 188.5C699.4 188.8 708.8 184.6 715 177.1L729.1 190.7C718.8 201.3 704.3 207 689.4 206.4C674.7 207.1 660.4 201.8 650 191.6C639.6 181.5 634 167.5 634.7 153.2C634 138.8 639.6 124.8 650 114.6C660.4 104.4 674.7 98.9 689.5 99.4C704.6 99 719.2 104.9 729.7 115.5L714.6 129Z" fill="white"/>
<path d="M787.9 99.2001C818.1 99.7001 842.3 123.9 842 153.4C841.7 182.9 817 206.6 786.7 206.4C756.5 206.2 732 182.3 732 152.8C732 138.4 737.9 124.7 748.4 114.6C759 104.5 773.2 99.0001 787.9 99.2001ZM787.9 188.4C809 188.4 822.3 173.7 822.3 152.8C822.3 132 809 117.3 787.9 117.3C766.8 117.3 753.4 132 753.4 152.8C753.4 173.6 766.7 188.4 787.9 188.4Z" fill="white"/>
<path d="M859.7 101.8H879.6V117.6C886.5 105.5 900 98.4001 914.1 99.3001C934.4 99.3001 951.9 111.2 951.9 138.3V204H932V143.8C932 124.6 920.7 117.5 908.2 117.5C891.6 117.5 879.1 127.8 879.1 151.5V204H859.8V101.8H859.7Z" fill="white"/>
<path d="M988.8 160C988.8 177.8 1005.8 189.5 1024.1 189.5C1035.6 189.1 1046.3 183.5 1052.8 174.3L1067.9 185.5C1056.9 199.5 1039.6 207.3 1021.5 206.3C988.4 206.3 967.7 183.1 967.7 152.7C967.1 138.5 972.6 124.6 982.8 114.5C993 104.3 1007.1 98.8 1021.7 99.1C1058.6 99.1 1072.7 126.6 1072.7 152.9V159.8L988.8 160ZM1051.5 144.4C1051 127.4 1041.4 114.9 1021.3 114.9C1004.2 114.8 989.9 127.7 988.8 144.4H1051.5Z" fill="white"/>
<path fill-rule="evenodd" clip-rule="evenodd" d="M127 6.40005C124.9 3.90005 121.4 3.30005 118.6 4.90005L116 6.30005L87.7 22.4L94.3 34L112.7 23.5L108.2 48.1L121.3 50.5L125.9 25.8L139.5 42L149.7 33.4L129.1 8.80005H129L127 6.40005ZM87.3 213.9C94.1 213.9 99.6 208.5 99.6 201.9C99.6 195.3 94.1 189.9 87.3 189.9C80.5 189.9 75 195.3 75 201.9C74.9 208.5 80.5 213.9 87.3 213.9ZM103.8 148L99.4 172.7L86.2 170.3L90.6 145.7L72.2 156.3L65.5 144.7L93.6 128.6L96.2 127.1C99 125.5 102.5 126.1 104.6 128.6L106.6 131L127.5 155.5L117.3 164.2L103.8 148ZM114.5 89L110.1 113.7L96.9 111.3L101.3 86.8L83 97.3L76.4 85.7L104.4 69.7V69.5H104.6L107.2 68C110 66.4 113.5 67 115.6 69.5L117.6 71.8L138.4 96.4L128.2 105.1L114.5 89ZM28.2 186.6H28.1L25.4 185.8C22.5 185 20.6 182.2 20.8 179.2L23.2 145.8L35.9 146.7L34.4 167L54.1 153.6L61.2 164.1L41.9 177.2L61.6 182.9L58.1 195.1L28.2 186.6ZM158.9 200.4L158 203.3C157.1 206.1 154.5 208 151.5 207.8L148.7 207.6L148.5 207.7L148.4 207.6L117.4 205.5L118.2 192.8L138.8 194.2L125.3 175.3L135.6 167.9L149.4 187.3L155.4 167.7L167.5 171.4L158.9 200.4ZM195.3 131.6L196.8 134.3C198.3 137 197.7 140.4 195.3 142.4L193.1 144.3V144.4H193L168.9 164.8L160.5 154.9L176.3 141.5L152.6 137.3L154.9 124.5L178.8 128.7L168.8 110.7L180.1 104.4L195.3 131.6ZM170.8 75.8L149.4 87.3L143.2 75.9L164.3 64.6L145 56.7L149.9 44.7L179.3 56.6L179.4 56.5L179.5 56.7L182.2 57.8C185.1 59 186.7 62 186.2 65L185.7 68L180.2 98.5L167.4 96.2L170.8 75.8ZM27.2 102.6L51 106.6L48.8 119.4L24.8 115.3L35 133.3L23.7 139.7L8.29999 112.6L6.79999 110C5.29999 107.3 5.89999 103.9 8.19999 101.9L10.4 100V99.9H10.5L34.3 79.4L42.8 89.3L27.2 102.6ZM63.1 47.2L78.9 64.8L69.2 73.5L53 55.5L49.3 76L36.5 73.7L42.1 43.3L42.7 40.2C43.2 37.2 45.8 35 48.8 34.9L51.6 34.8L51.7 34.7L51.8 34.8L83.6 33.5L84.1 46.5L63.1 47.2Z" fill="white"/>
</svg>
